<svg xmlns="http://www.w3.org/2000/svg" width="24" height="24">
    <path fill="currentColor"
          d="M11.5 3c3.177 0 5.265 1 5.265 1.5 0 .58-.634.936-1.473 1.154.281.708.414 1.51.414 2.346 0 .608-.22.88-1.059 1-2.44.35-6.353 1.76-6.353 4.5 0 1.068.466 1.96 1.25 2.575.774.608 1.828.925 2.985.925 1.24 0 2.293-.583 3.022-1.271a4.66 4.66 0 0 0 .872-1.106c.204-.367.342-.762.342-1.123 0-.276-.237-.5-.53-.5-.292 0-.53.224-.53.5 0 .139-.06.37-.22.659a3.658 3.658 0 0 1-.683.862c-.595.562-1.394.979-2.273.979-.96 0-1.76-.263-2.308-.694-.54-.424-.868-1.033-.868-1.806 0-1.165 1.023-2.047 2.705-2.658.687-.25 1.736-.456 2.61-.627.4-.079.763-.15 1.038-.215a21.041 21.041 0 0 0 2.285-.673c.574-.2.94-.327 1.42-.327C20.979 9 21 11 21 13s-.13 7-8.47 7C7.234 20 3 18.577 3 15.021c0-2.496 1.632-3.25 2.87-3.822C6.626 10.85 7 10.57 7 10c0-.771-.514-.888-.878-.97L6 9c-1.09-.285-2-.97-2-2 0-.45.364-.922 1-1 .907-.11 1.77-.366 2.483-1.08C8.613 3.784 9.813 3 11.5 3ZM10 6a.98.98 0 0 0-1-1 .98.98 0 0 0-1 1c0 .552.415 1 1 1a.98.98 0 0 0 1-1Z"></path>
</svg>