<svg xmlns="http://www.w3.org/2000/svg" width="24" height="24">
    <path fill="currentColor"
          d="M6 15c0 4 .357 5 6 5s6-1 6-5c0-3.085-.136-3.886.202-4.263.21-.234.602-.305 1.322-.657 1.881-.92 1.881-1.08.47-3.58-.47-.833-1.41-2.5-3.291-2.5s-2.117.5-2.352 1c-.235.5-.47 1-2.351 1-1.87 0-2.113-.494-2.358-.992C9.395 4.506 9.147 4 7.212 4 5.416 4 4.476 5.667 4.006 6.5c-1.411 2.5-1.411 2.66.47 3.58.717.35 1.109.434 1.32.675.34.392.204 1.2.204 4.245Zm7-6h1a1 1 0 1 1 0 2h-1a1 1 0 1 1 0-2Z"></path>
</svg>