<svg width="18" height="16" viewBox="0 0 18 16" fill="none" xmlns="http://www.w3.org/2000/svg">
    <path d="M7.5 9.90723H1.5C1.5 11.4072 3 12.9072 4.5 12.9072C6 12.9072 7.5 11.4072 7.5 9.90723Z" fill="currentColor"/>
    <path d="M16.5 12.1572H10.5C10.5 13.6572 12 15.1572 13.5 15.1572C15 15.1572 16.5 13.6572 16.5 12.1572Z"
          fill="currentColor"/>
    <path d="M9 1.65723V4.65723M2.25 3.15723L15.75 6.15723M2.25 9.15723L4.5 4.65723L6.75 9.15723M11.25 11.4072L13.5 6.90723L15.75 11.4072M1.5 9.90723H7.5C7.5 11.4072 6 12.9072 4.5 12.9072C3 12.9072 1.5 11.4072 1.5 9.90723ZM10.5 12.1572H16.5C16.5 13.6572 15 15.1572 13.5 15.1572C12 15.1572 10.5 13.6572 10.5 12.1572Z"
          stroke="currentColor" stroke-width="1.5" stroke-linecap="round" stroke-linejoin="round"/>
</svg>
