<svg xmlns="http://www.w3.org/2000/svg" width="24" height="24">
    <path fill="currentColor"
          d="M10.069 5.067c.527-.039 1.033-.06 1.516-.067 1.01-.012 1.225.25 1.443 1.487l.781 4.434c.283 1.604.303 2.174-1.04 2.535-.704.189-1.442.333-2.195.427-3.087.386-6.425-.008-6.57-3.904-.131-3.5 3.207-4.698 6.065-4.912Zm7.581 5.673c-.392.471-.908.906-1.516 1.293-.862.548-1.008.537-1.201-.557l-.967-5.488c-.146-.827-.057-.898.652-.78.563.093 1.07.215 1.516.36.987.321 1.2 1.162 1.494 2.33l.022.086c.032.125.065.249.098.37.241.903.459 1.716-.098 2.385ZM6.002 19.006c0-1.993.014-2.916.014-2.916.001-.143 0-.268-.002-.379-.011-.79-.011-.8.917-.606.887.185 1.834.184 2.724.1 1.426-.133 1.388 1.171 1.355 2.31-.005.166-.01.33-.01.485 0 3-.5 3-2.5 3-2.247 0-2.498 0-2.498-1.994Zm7.704-4.778c1.465-.556 1.42 0 1.136.647-.284.648-.91 1.489-1.705 1.942-.796.453-1.137 0-1.137-.647 0-.648.293-1.406 1.706-1.942Zm7.458-6.242-1.85.364c-.427.083-.578-.214-.744-.85-.215-.822-.07-1 .43-1.126l1.836-.36a1 1 0 1 1 .328 1.972Z"></path>
</svg>