<svg width="24" height="24" viewBox="0 0 24 24" fill="none" xmlns="http://www.w3.org/2000/svg">
    <path d="M20.8382 4.61085C20.3274 4.09985 19.721 3.6945 19.0535 3.41793C18.3861 3.14137 17.6707 2.99902 16.9482 2.99902C16.2257 2.99902 15.5103 3.14137 14.8428 3.41793C14.1754 3.6945 13.5689 4.09985 13.0582 4.61085L11.9982 5.67085L10.9382 4.61085C9.90647 3.57916 8.5072 2.99956 7.04817 2.99956C5.58913 2.99956 4.18986 3.57916 3.15817 4.61085C2.12647 5.64254 1.54688 7.04182 1.54688 8.50085C1.54687 9.95988 2.12647 11.3592 3.15817 12.3908L4.21817 13.4508L11.9982 21.2308L19.7782 13.4508L20.8382 12.3908C21.3492 11.8801 21.7545 11.2737 22.0311 10.6062C22.3076 9.93875 22.45 9.22334 22.45 8.50085C22.45 7.77836 22.3076 7.06295 22.0311 6.39549C21.7545 5.72803 21.3492 5.12161 20.8382 4.61085Z"
          stroke="currentColor" stroke-width="2" stroke-linecap="round" stroke-linejoin="round"/>
</svg>
