<svg width="18" height="19" viewBox="0 0 18 19" fill="none" xmlns="http://www.w3.org/2000/svg">
    <path d="M15.6325 4.27235C15.2495 3.8891 14.7946 3.58508 14.294 3.37766C13.7935 3.17024 13.2569 3.06348 12.715 3.06348C12.1732 3.06348 11.6366 3.17024 11.136 3.37766C10.6354 3.58508 10.1806 3.8891 9.79753 4.27235L9.00253 5.06735L8.20753 4.27235C7.43376 3.49858 6.38431 3.06388 5.29003 3.06388C4.19576 3.06388 3.1463 3.49858 2.37253 4.27235C1.59876 5.04611 1.16406 6.09557 1.16406 7.18985C1.16406 8.28412 1.59876 9.33358 2.37253 10.1073L3.16753 10.9023L9.00253 16.7373L14.8375 10.9023L15.6325 10.1073C16.0158 9.72428 16.3198 9.26946 16.5272 8.76886C16.7346 8.26827 16.8414 7.73171 16.8414 7.18985C16.8414 6.64798 16.7346 6.11142 16.5272 5.61083C16.3198 5.11024 16.0158 4.65541 15.6325 4.27235Z"
          stroke="currentColor" stroke-width="1.5" stroke-linecap="round" stroke-linejoin="round"/>
</svg>
