<svg width="18" height="17" viewBox="0 0 18 17" fill="none" xmlns="http://www.w3.org/2000/svg">
    <path d="M15.6325 2.86512C15.2495 2.48187 14.7946 2.17785 14.294 1.97043C13.7935 1.76301 13.2569 1.65625 12.715 1.65625C12.1732 1.65625 11.6366 1.76301 11.136 1.97043C10.6354 2.17785 10.1806 2.48187 9.79753 2.86512L9.00253 3.66012L8.20753 2.86512C7.43376 2.09135 6.38431 1.65665 5.29003 1.65665C4.19576 1.65665 3.1463 2.09135 2.37253 2.86512C1.59876 3.63889 1.16406 4.68834 1.16406 5.78262C1.16406 6.87689 1.59876 7.92635 2.37253 8.70012L3.16753 9.49512L9.00253 15.3301L14.8375 9.49512L15.6325 8.70012C16.0158 8.31705 16.3198 7.86223 16.5272 7.36164C16.7346 6.86104 16.8414 6.32448 16.8414 5.78262C16.8414 5.24075 16.7346 4.7042 16.5272 4.2036C16.3198 3.70301 16.0158 3.24819 15.6325 2.86512Z"
          fill="currentColor" stroke="currentColor" stroke-width="1.5" stroke-linecap="round" stroke-linejoin="round"/>
</svg>
