<svg xmlns="http://www.w3.org/2000/svg" width="24" height="24">
    <path fill="currentColor"
          d="M5.038 4.96c.2 1.693.745 3.954 2.226 4.693 1.063.53 2.73.34 3.69.163.032.659.042 1.383.045 2.184H7.5c-3 0-2.778 1-2 4.5S7 21 12 21s5.722-1 6.5-4.5c.778-3.5 1-4.5-2-4.5H13c-.004-1.1-.02-2.114-.096-3.02-.098-1.172-.3-2.259-.759-3.177a4.452 4.452 0 0 0-2.553-2.2c-.854-.323-1.816-.49-2.644-.574-1.681-.172-2.086.42-1.909 1.931Z"></path>
    <path fill="currentColor"
          d="M15.079 9.058c-.111-.762-.155-1.773.215-2.433.426-.759 1.494-1.22 2.322-1.475.884-.271 1.153-.263 1.305.78.11.762.155 1.773-.215 2.433-.443.79-1.581 1.257-2.422 1.505-.84.248-1.053.233-1.205-.81Z"></path>
</svg>