<svg width="24" height="24" viewBox="0 0 24 24" fill="none" xmlns="http://www.w3.org/2000/svg">
<path d="M17 2.375H7C4.23858 2.375 2 4.61358 2 7.375V17.375C2 20.1364 4.23858 22.375 7 22.375H17C19.7614 22.375 22 20.1364 22 17.375V7.375C22 4.61358 19.7614 2.375 17 2.375Z" stroke="white" stroke-width="2" stroke-linecap="round" stroke-linejoin="round"/>
<path d="M16.0036 11.7453C16.127 12.5775 15.9849 13.4275 15.5974 14.1743C15.2099 14.9211 14.5968 15.5267 13.8452 15.905C13.0937 16.2832 12.2421 16.4149 11.4114 16.2812C10.5807 16.1476 9.81337 15.7554 9.21845 15.1605C8.62353 14.5655 8.23135 13.7982 8.09768 12.9675C7.96402 12.1369 8.09568 11.2852 8.47394 10.5337C8.8522 9.78216 9.4578 9.16904 10.2046 8.78154C10.9514 8.39404 11.8014 8.25189 12.6336 8.3753C13.4825 8.50119 14.2685 8.89676 14.8753 9.50361C15.4822 10.1105 15.8777 10.8964 16.0036 11.7453Z" stroke="white" stroke-width="2" stroke-linecap="round" stroke-linejoin="round"/>
<path d="M17.5 6.875H17.51" stroke="white" stroke-width="2" stroke-linecap="round" stroke-linejoin="round"/>
</svg>
