<svg width="24" height="24" viewBox="0 0 24 24" fill="none" xmlns="http://www.w3.org/2000/svg">
<path d="M5.3191 14.5049L4.48366 17.6237L1.43016 17.6883C0.517613 15.9957 0 14.0592 0 12.0013C0 10.0113 0.483955 8.13478 1.3418 6.48242H1.34246L4.06093 6.98081L5.25179 9.68298C5.00254 10.4096 4.86669 11.1896 4.86669 12.0013C4.86679 12.8822 5.02636 13.7262 5.3191 14.5049Z" fill="#FBBB00"/>
<path d="M23.7887 9.75879C23.9265 10.4847 23.9983 11.2344 23.9983 12.0006C23.9983 12.8598 23.908 13.6978 23.7359 14.5062C23.1517 17.2571 21.6253 19.6592 19.5107 21.359L19.5101 21.3583L16.086 21.1836L15.6014 18.1584C17.0045 17.3356 18.1011 16.0478 18.6787 14.5062H12.2617V9.75879H18.7723H23.7887Z" fill="#518EF8"/>
<path d="M19.5121 21.358L19.5128 21.3586C17.4562 23.0117 14.8438 24.0007 12 24.0007C7.42991 24.0007 3.45659 21.4463 1.42969 17.6873L5.31863 14.5039C6.33205 17.2086 8.94116 19.134 12 19.134C13.3147 19.134 14.5464 18.7785 15.6034 18.1581L19.5121 21.358Z" fill="#28B446"/>
<path d="M19.6583 2.76273L15.7707 5.94547C14.6768 5.26172 13.3838 4.86674 11.9985 4.86674C8.87045 4.86674 6.21254 6.88042 5.24988 9.6821L1.3405 6.48155H1.33984C3.33707 2.63086 7.3605 0 11.9985 0C14.9102 0 17.58 1.03719 19.6583 2.76273Z" fill="#F14336"/>
</svg>
