<svg width="24" height="24" viewBox="0 0 24 24" fill="none" xmlns="http://www.w3.org/2000/svg">
<g clip-path="url(#clip0_2699_42819)">
<path d="M12.5 0.09375C19.1274 0.09375 24.5 5.46633 24.5 12.0938C24.5 18.0833 20.1118 23.0477 14.375 23.948V15.5625H17.1711L17.7031 12.0938H14.375V9.84274C14.375 8.89376 14.8399 7.96875 16.3306 7.96875H17.8438V5.01562C17.8438 5.01562 16.4705 4.78125 15.1576 4.78125C12.4165 4.78125 10.625 6.4425 10.625 9.45V12.0938H7.57812V15.5625H10.625V23.948C4.88823 23.0477 0.5 18.0833 0.5 12.0938C0.5 5.46633 5.87258 0.09375 12.5 0.09375Z" fill="#1877F2"/>
</g>
<defs>
<clipPath id="clip0_2699_42819">
<rect width="24" height="24" fill="white" transform="translate(0.5)"/>
</clipPath>
</defs>
</svg>
