<svg width="18" height="19" viewBox="0 0 18 19" fill="none" xmlns="http://www.w3.org/2000/svg">
<path d="M15.75 9.43947C15.7526 10.4294 15.5213 11.4059 15.075 12.2895C14.5458 13.3483 13.7323 14.2389 12.7256 14.8614C11.7189 15.484 10.5587 15.814 9.375 15.8145C8.3851 15.8171 7.40859 15.5858 6.525 15.1395L2.25 16.5645L3.675 12.2895C3.2287 11.4059 2.99742 10.4294 3 9.43947C3.00046 8.25579 3.33046 7.09561 3.95304 6.08889C4.57562 5.08216 5.46619 4.26865 6.525 3.73947C7.40859 3.29317 8.3851 3.06189 9.375 3.06447H9.75C11.3133 3.15072 12.7898 3.81055 13.8969 4.91762C15.0039 6.02469 15.6638 7.50121 15.75 9.06447V9.43947Z" stroke="#030C1C" stroke-width="1.5" stroke-linecap="round" stroke-linejoin="round"/>
</svg>
