<svg width="24" height="24" viewBox="0 0 24 24" fill="none" xmlns="http://www.w3.org/2000/svg">
    <path d="M11.1605 3.2971C11.5546 2.68823 12.4454 2.68823 12.8395 3.2971L14.151 5.32351C14.3766 5.67202 14.794 5.84493 15.2 5.75799L17.5603 5.2525C18.2694 5.10061 18.8994 5.73055 18.7475 6.43974L18.242 8.80003C18.1551 9.20596 18.328 9.62339 18.6765 9.84895L20.7029 11.1605C21.3118 11.5546 21.3118 12.4454 20.7029 12.8395L18.6765 14.151C18.328 14.3766 18.1551 14.794 18.242 15.2L18.7475 17.5603C18.8994 18.2694 18.2694 18.8994 17.5603 18.7475L15.2 18.242C14.794 18.1551 14.3766 18.328 14.151 18.6765L12.8395 20.7029C12.4454 21.3118 11.5546 21.3118 11.1605 20.7029L9.84895 18.6765C9.62339 18.328 9.20596 18.1551 8.80003 18.242L6.43974 18.7475C5.73055 18.8994 5.10061 18.2694 5.2525 17.5603L5.75799 15.2C5.84493 14.794 5.67202 14.3766 5.32351 14.151L3.2971 12.8395C2.68823 12.4454 2.68823 11.5546 3.2971 11.1605L5.32351 9.84895C5.67202 9.62339 5.84493 9.20596 5.75799 8.80003L5.2525 6.43974C5.10061 5.73055 5.73055 5.10061 6.43974 5.2525L8.80003 5.75799C9.20596 5.84493 9.62339 5.67202 9.84895 5.32351L11.1605 3.2971Z"
          stroke="currentColor" stroke-width="2"/>
</svg>
