<svg width="18" height="18" viewBox="0 0 18 18" fill="none" xmlns="http://www.w3.org/2000/svg">
<path d="M12.375 7.45695L5.625 3.56445" stroke="currentColor" stroke-width="1.5" stroke-linecap="round" stroke-linejoin="round"/>
<path d="M15.75 12.4076V6.40764C15.7497 6.1446 15.6803 5.88625 15.5487 5.65851C15.417 5.43078 15.2278 5.24166 15 5.11014L9.75 2.11014C9.52197 1.97849 9.2633 1.90918 9 1.90918C8.7367 1.90918 8.47803 1.97849 8.25 2.11014L3 5.11014C2.7722 5.24166 2.58299 5.43078 2.45135 5.65851C2.31971 5.88625 2.25027 6.1446 2.25 6.40764V12.4076C2.25027 12.6707 2.31971 12.929 2.45135 13.1568C2.58299 13.3845 2.7722 13.5736 3 13.7051L8.25 16.7051C8.47803 16.8368 8.7367 16.9061 9 16.9061C9.2633 16.9061 9.52197 16.8368 9.75 16.7051L15 13.7051C15.2278 13.5736 15.417 13.3845 15.5487 13.1568C15.6803 12.929 15.7497 12.6707 15.75 12.4076Z" stroke="currentColor" stroke-width="1.5" stroke-linecap="round" stroke-linejoin="round"/>
<path d="M2.45312 5.62695L9.00062 9.41445L15.5481 5.62695" stroke="currentColor" stroke-width="1.5" stroke-linecap="round" stroke-linejoin="round"/>
<path d="M9 16.9672V9.40723" stroke="currentColor" stroke-width="1.5" stroke-linecap="round" stroke-linejoin="round"/>
</svg>
