<svg xmlns="http://www.w3.org/2000/svg" width="24" height="24">
    <path fill="currentColor"
          d="M6.07 7.744c.18-1.525.713-2.696 1.654-3.503C8.876 3.253 10.428 3 12 3c1.572 0 3.124.253 4.276 1.24.941.808 1.475 1.979 1.655 3.504C20.378 8.689 21 10.618 21 14c0 5.25-1.5 7-9 7s-9-1.75-9-7c0-3.382.622-5.311 3.07-6.256Zm2.122-.521C9.247 7.07 10.504 7 12 7s2.753.07 3.808.223c-.187-.72-.491-1.17-.834-1.464C14.376 5.247 13.428 5 12 5c-1.428 0-2.376.247-2.974.76-.343.293-.647.742-.834 1.463ZM12 11a1 1 0 0 0-1 1v1h-1a1 1 0 1 0 0 2h1v1a1 1 0 1 0 2 0v-1h1a1 1 0 1 0 0-2h-1v-1a1 1 0 0 0-1-1Z"></path>
</svg>