<svg xmlns="http://www.w3.org/2000/svg" width="24" height="24">
    <path fill="currentColor"
          d="M11 6c1.074 0 2.292.288 3.5.768.513.204.734.334.182.843l-.536.535a.5.5 0 0 0 .708.708l.883-.884c.38-.381.427-.428.917-.136.46.274.346.486-.005.81l-.503.502a.5.5 0 0 0 .708.708l.565-.566c.278-.278.724-.47 1.27 0C20.065 10.476 21 11.816 21 13v.5c0 1.066-.46 1.5-1.5 1.5H8c-.924 0-.992-.255-1.15-.848A16.66 16.66 0 0 0 6.808 14a4 4 0 0 0-1.017-1.791A4 4 0 0 0 4 11.192c-.073-.02-.14-.039-.203-.055-.744-.2-.796-.215-.796-1.137C3 7.994 3.513 7.97 4.594 7.994 4.72 7.997 4.854 8 5 8c.57 0 .748.358.952.772C6.23 9.335 6.558 10 8 10c1.648 0 1.781-1.207 1.902-2.295C10 6.812 10.09 6 11 6Z"></path>
    <path fill="currentColor"
          d="M5.084 12.916c.288.288.518.65.676 1.084.24.662.17 1-.76 1h-.5c-.994 0-1.5-.505-1.5-1.5V13c0-1 .338-1 1-.76.434.158.796.388 1.084.676ZM20 16H4c-.5 0-.75 0-.875.125S3 16.5 3 17c0 1 1 1 2 1h14c1 0 2 0 2-1 0-.5 0-.75-.125-.875S20.5 16 20 16Z"></path>
</svg>