<svg width="18" height="19" viewBox="0 0 18 19" fill="none" xmlns="http://www.w3.org/2000/svg">
    <g clip-path="url(#clip0_1499_62772)">
        <path d="M6.75 17.3145C7.16421 17.3145 7.5 16.9787 7.5 16.5645C7.5 16.1502 7.16421 15.8145 6.75 15.8145C6.33579 15.8145 6 16.1502 6 16.5645C6 16.9787 6.33579 17.3145 6.75 17.3145Z"
              stroke="currentColor" stroke-width="1.5" stroke-linecap="round" stroke-linejoin="round"/>
        <path d="M15 17.3145C15.4142 17.3145 15.75 16.9787 15.75 16.5645C15.75 16.1502 15.4142 15.8145 15 15.8145C14.5858 15.8145 14.25 16.1502 14.25 16.5645C14.25 16.9787 14.5858 17.3145 15 17.3145Z"
              stroke="currentColor" stroke-width="1.5" stroke-linecap="round" stroke-linejoin="round"/>
        <path d="M0.75 1.56445H3.75L5.76 11.607C5.82858 11.9522 6.01643 12.2624 6.29066 12.4832C6.56489 12.7039 6.90802 12.8212 7.26 12.8145H14.55C14.902 12.8212 15.2451 12.7039 15.5193 12.4832C15.7936 12.2624 15.9814 11.9522 16.05 11.607L17.25 5.31445H4.5"
              stroke="currentColor" stroke-width="1.5" stroke-linecap="round" stroke-linejoin="round"/>
    </g>
    <defs>
        <clipPath id="clip0_1499_62772">
            <rect width="18" height="18" fill="white" transform="translate(0 0.814453)"/>
        </clipPath>
    </defs>
</svg>
