<svg xmlns="http://www.w3.org/2000/svg" width="24" height="24">
    <path fill="currentColor"
          d="M16.1 4.104c-4.442-2.762-9.296.065-10.49 3.98-.493 1.616-.246 1.997 1.112 2.793l6.139 3.601c1.837 1.078 2.501 1.448 4.093-.277 2.552-2.766 3.187-7.583-.854-10.097ZM11.629 16.22h.209c.511 0 1.345 0 .511-.525l-1.153-.727a5229.176 5229.176 0 0 1-4.927-3.104c-.57-.361-.66-.138-.498.288.089.233.183.454.272.665.367.861.664 1.56.226 2.235-.242.371-.968 1.274-1.594 2.038l-.074.09c-.882 1.075-.905 1.102.692 2.126 1.429.982 1.656.944 2.395-.255.5-.812 1.114-1.793 1.405-2.19.477-.649 1.562-.645 2.536-.642ZM18.5 21c1.551 0 2.5-.949 2.5-2.5 0-1.551-.949-2.5-2.5-2.5-1.551 0-2.5.949-2.5 2.5 0 1.551.949 2.5 2.5 2.5Z"></path>
</svg>