<svg width="24" height="24" viewBox="0 0 24 24" fill="none" xmlns="http://www.w3.org/2000/svg">
<path d="M22.5406 5.50566C22.4218 4.8917 22.1799 4.32917 21.8392 3.87488C21.4986 3.42059 21.0713 3.09063 20.6006 2.91834C18.8806 2.375 12.0006 2.375 12.0006 2.375C12.0006 2.375 5.12057 2.375 3.40057 2.97008C2.92982 3.14238 2.50255 3.47234 2.16192 3.92663C1.82129 4.38091 1.57936 4.94345 1.46057 5.55741C1.14579 7.81556 0.991808 10.1063 1.00057 12.4009C0.989351 14.7127 1.14334 17.0209 1.46057 19.2961C1.59153 19.891 1.83888 20.4321 2.17872 20.8672C2.51855 21.3023 2.93939 21.6167 3.40057 21.7799C5.12057 22.375 12.0006 22.375 12.0006 22.375C12.0006 22.375 18.8806 22.375 20.6006 21.7799C21.0713 21.6076 21.4986 21.2777 21.8392 20.8234C22.1799 20.3691 22.4218 19.8066 22.5406 19.1926C22.8529 16.9514 23.0069 14.6781 23.0006 12.4009C23.0118 10.089 22.8578 7.78082 22.5406 5.50566Z" stroke="white" stroke-width="2" stroke-linecap="round" stroke-linejoin="round"/>
<path d="M9.75 15.3955L15.5 12.1255L9.75 8.85547V15.3955Z" stroke="white" stroke-width="2" stroke-linecap="round" stroke-linejoin="round"/>
</svg>
